<?xml version="1.0" encoding="UTF-8" standalone="no"?><!DOCTYPE svg PUBLIC "-//W3C//DTD SVG 1.1//EN" "http://www.w3.org/Graphics/SVG/1.1/DTD/svg11.dtd"><svg width="100%" height="100%" viewBox="0 0 592 302" version="1.1" xmlns="http://www.w3.org/2000/svg" xmlns:xlink="http://www.w3.org/1999/xlink" xml:space="preserve" xmlns:serif="http://www.serif.com/" style="fill-rule:evenodd;clip-rule:evenodd;stroke-linejoin:round;stroke-miterlimit:2;"><g><circle cx="151.346" cy="151" r="150.96"/><circle cx="212.494" cy="151" r="150.96" style="fill:#cfcfcf;"/><g transform="matrix(1.7671,0,0,1.7671,-249.722,-281.358)"><g transform="matrix(117.093,0,0,117.093,197,287)"><path d="M0.081,0l0.502,0l0,-0.124l-0.356,-0.001l0,-0.179l0.304,0l0,-0.121l-0.303,0l0,-0.175l0.349,0l0.001,-0.123l-0.497,0l0,0.723Z" style="fill-rule:nonzero;"/></g><g transform="matrix(117.093,0,0,117.093,261.635,287)"><path d="M0.379,-0.733c-0.202,0 -0.326,0.141 -0.326,0.366c0,0.224 0.126,0.377 0.328,0.377c0.196,0 0.275,-0.114 0.292,-0.25l-0.152,-0.003c-0.015,0.076 -0.067,0.133 -0.144,0.133c-0.103,0 -0.164,-0.079 -0.164,-0.255c0,-0.177 0.061,-0.248 0.161,-0.248c0.085,0 0.134,0.05 0.148,0.126l0.153,-0.002c-0.015,-0.14 -0.132,-0.244 -0.296,-0.244Z" style="fill-rule:nonzero;"/></g><g transform="matrix(117.093,0,0,117.093,339.151,287)"><path d="M0.081,-0.723l0,0.723l0.461,0l0,-0.123l-0.314,0l0,-0.6l-0.147,0Z" style="fill-rule:nonzero;"/></g><g transform="matrix(117.093,0,0,117.093,391.843,287)"><path d="M0.386,0.01c0.203,0 0.331,-0.141 0.331,-0.37c0,-0.231 -0.13,-0.373 -0.331,-0.373c-0.202,0 -0.333,0.142 -0.333,0.374c0,0.229 0.127,0.369 0.333,0.369Zm0,-0.12c-0.105,0 -0.174,-0.072 -0.174,-0.248c0,-0.18 0.069,-0.255 0.174,-0.255c0.105,0 0.172,0.075 0.172,0.255c0,0.177 -0.066,0.248 -0.172,0.248Z" style="fill-rule:nonzero;"/></g></g><path d="M245.36,274.664c0.547,0 1.393,-0.15 2.139,-0.349l0,-2.587l-1.492,0c-1.692,-0.099 -2.886,-1.343 -2.886,-4.13l0,-30.201l-3.831,0l0,30.5c0,3.582 1.094,6.767 6.07,6.767Z" style="fill-rule:nonzero;"/><path d="M260.734,274.813c3.433,0.05 6.966,-1.443 7.862,-5.722l0.248,5.224l3.135,0l0.05,-25.773l-3.881,0l0,16.768c-0.05,4.279 -3.284,6.368 -6.717,6.368c-2.836,0 -6.468,-1.443 -6.468,-6.07l0,-17.066l-3.881,0l0,17.414c0,6.469 5.373,8.857 9.652,8.857Z" style="fill-rule:nonzero;"/><path d="M299.643,274.365l-9.901,-13.384l9.155,-12.339l-4.329,0l-7.065,9.503l-7.016,-9.503l-4.328,0l9.154,12.339l-9.951,13.384l4.329,0l7.812,-10.548l7.811,10.548l4.329,0Z" style="fill-rule:nonzero;"/><path d="M312.281,274.813c3.433,0.05 6.966,-1.443 7.861,-5.722l0.249,5.224l3.135,0l0.049,-25.773l-3.881,0l0,16.768c-0.049,4.279 -3.283,6.368 -6.717,6.368c-2.836,0 -6.468,-1.443 -6.468,-6.07l0,-17.066l-3.881,0l0,17.414c0,6.469 5.374,8.857 9.653,8.857Z" style="fill-rule:nonzero;"/><path d="M329.596,274.365l3.881,0l0,-16.519c0,-3.682 2.736,-6.169 9.304,-5.921l0,-3.781c-4.876,0 -8.21,2.289 -9.503,5.125l0,-4.627l-3.682,0l0,25.723Z" style="fill-rule:nonzero;"/><path d="M348.353,282.575c3.434,0 6.021,-1.344 7.862,-5.772l10.946,-28.161l-3.781,0l-7.911,20.698l-8.011,-20.698l-3.931,0l10.051,25.226l-0.995,2.736c-0.597,1.393 -1.642,2.985 -5.274,2.886l-2.687,0l0,2.537c0,0 0.895,0.548 3.731,0.548Z" style="fill-rule:nonzero;"/><path d="M388.506,248.144c-7.065,0 -11.593,5.573 -11.593,13.484c0,7.861 4.528,13.235 11.593,13.235c4.926,0 9.205,-2.687 10.1,-8.16l-3.433,0c-0.696,3.134 -3.234,5.125 -6.418,5.125c-5.025,0 -8.061,-4.08 -8.061,-10.3c0,-6.169 3.085,-10.2 8.011,-10.2c3.085,0 5.523,1.742 6.419,5.175l3.532,-0.1c-0.796,-5.323 -5.075,-8.259 -10.15,-8.259Z" style="fill-rule:nonzero;"/><path d="M412.488,274.863c7.314,0 11.543,-5.473 11.543,-13.285c0,-7.812 -4.229,-13.434 -11.493,-13.434c-7.264,0 -11.643,5.573 -11.643,13.533c0,7.762 4.229,13.186 11.593,13.186Zm0.1,-3.135c-5.324,0 -7.812,-4.428 -7.812,-10.2c0,-5.871 2.488,-10.249 7.762,-10.249c5.224,0 7.612,4.328 7.612,10.249c0,5.822 -2.338,10.2 -7.562,10.2Z" style="fill-rule:nonzero;"/><path d="M428.41,274.365l3.881,0l0,-17.464c0,-3.632 3.333,-5.374 7.165,-5.374c3.632,0 6.02,2.239 6.02,6.319l0,16.519l3.881,0l0,-16.867c0,-6.12 -4.03,-9.254 -9.006,-9.254c-4.13,0 -6.816,1.791 -8.21,4.03l0,-3.632l-3.731,0l0,25.723Z" style="fill-rule:nonzero;"/><path d="M463.935,274.863c5.224,0 9.603,-2.588 9.603,-7.513c0,-2.588 -1.294,-5.623 -5.772,-6.817l-5.423,-1.393c-2.836,-0.746 -4.379,-1.692 -4.379,-3.632c0,-3.384 3.284,-4.279 5.872,-4.279c3.184,0 5.274,1.592 5.622,4.13l3.582,0c-0.149,-4.578 -3.781,-7.215 -9.155,-7.215c-5.572,0 -9.553,2.637 -9.553,7.563c0,3.731 2.588,5.523 6.618,6.568l5.274,1.442c2.338,0.598 3.781,1.792 3.781,3.832c0,2.736 -2.487,4.229 -6.12,4.229c-3.283,0 -6.07,-1.443 -6.766,-4.727l-3.682,0c0.696,5.175 5.075,7.812 10.498,7.812Z" style="fill-rule:nonzero;"/><path d="M487.32,274.813c3.433,0.05 6.966,-1.443 7.861,-5.722l0.249,5.224l3.135,0l0.05,-25.773l-3.881,0l0,16.768c-0.05,4.279 -3.284,6.368 -6.717,6.368c-2.836,0 -6.468,-1.443 -6.468,-6.07l0,-17.066l-3.881,0l0,17.414c0,6.469 5.373,8.857 9.652,8.857Z" style="fill-rule:nonzero;"/><path d="M510.556,274.664c0.547,0 1.393,-0.15 2.139,-0.349l0,-2.587l-1.492,0c-1.692,-0.099 -2.886,-1.343 -2.886,-4.13l0,-30.201l-3.831,0l0,30.5c0,3.582 1.094,6.767 6.07,6.767Z" style="fill-rule:nonzero;"/><path d="M525.482,251.527l0,-2.885l-5.821,0l0,-7.414l-3.134,0l-0.747,7.414l-4.279,0l0,2.885l4.18,0l0,16.718c0,4.13 1.443,6.22 6.368,6.22c1.692,0 2.986,-0.15 3.632,-0.398l0,-2.687l-2.637,0c-2.487,0 -3.383,-0.448 -3.383,-3.433l0,-16.42l5.821,0Z" style="fill-rule:nonzero;"/><path d="M534.04,238.74l-4.229,0l0,4.279l4.229,0l0,-4.279Zm-0.149,9.902l-3.881,0l0,25.723l3.881,0l0,-25.723Z" style="fill-rule:nonzero;"/><path d="M540.16,274.365l3.881,0l0,-17.464c0,-3.632 3.334,-5.374 7.165,-5.374c3.632,0 6.02,2.239 6.02,6.319l0,16.519l3.881,0l0,-16.867c0,-6.12 -4.03,-9.254 -9.005,-9.254c-4.13,0 -6.817,1.791 -8.21,4.03l0,-3.632l-3.732,0l0,25.723Z" style="fill-rule:nonzero;"/><path d="M577.029,282.873c7.911,0 12.339,-2.985 12.339,-7.811c0,-3.931 -2.487,-6.518 -8.16,-6.867c-2.338,-0.149 -4.279,-0.248 -5.622,-0.348c-3.732,-0.249 -5.025,-0.547 -5.025,-1.542c0,-0.896 1.194,-1.841 5.174,-1.941c0.349,0.05 0.896,0.05 1.244,0.05c7.165,0 10.499,-3.682 10.499,-8.011c0,-1.044 -0.498,-2.786 -0.946,-3.731l4.528,-0.896l0,-3.881l-6.269,2.637c-1.99,-1.492 -4.08,-2.288 -7.364,-2.288c-6.568,0 -10.946,3.035 -10.946,8.159c0,3.085 1.343,5.324 4.727,7.066c-2.886,0.696 -4.379,2.089 -4.379,3.632c0,1.841 1.642,2.537 2.538,3.085c-0.697,0.497 -4.827,2.04 -4.827,5.821c0,4.179 4.329,6.866 12.489,6.866Zm0.1,-21.096c-4.329,0 -6.767,-1.94 -6.767,-5.374c0,-3.482 2.488,-5.622 6.767,-5.622c3.93,0 6.617,1.941 6.617,5.622c0,3.483 -2.239,5.374 -6.617,5.374Zm0.597,18.459c-6.021,0 -9.305,-1.592 -9.305,-4.677c0,-2.637 2.836,-4.528 4.677,-4.428l7.563,0.498c3.583,0.199 4.926,1.592 4.926,3.93c0,3.185 -2.587,4.677 -7.861,4.677Z" style="fill-rule:nonzero;"/></g></svg>